<svg width="70" height="70" viewBox="0 0 70 70" fill="none" xmlns="http://www.w3.org/2000/svg">
<g filter="url(#filter0_d_1_852)">
<path d="M30.0521 4.3125C30.0521 6.41809 28.3452 8.125 26.2396 8.125C24.134 8.125 22.4271 6.41809 22.4271 4.3125C22.4271 2.20691 24.134 0.5 26.2396 0.5C28.3452 0.5 30.0521 2.20691 30.0521 4.3125Z" fill="#86E3FA"/>
</g>
<g filter="url(#filter1_d_1_852)">
<path d="M38.9479 4.3125C38.9479 6.41809 37.241 8.125 35.1354 8.125C33.0298 8.125 31.3229 6.41809 31.3229 4.3125C31.3229 2.20691 33.0298 0.5 35.1354 0.5C37.241 0.5 38.9479 2.20691 38.9479 4.3125Z" fill="#86E3FA"/>
</g>
<g filter="url(#filter2_d_1_852)">
<path d="M47.8438 4.3125C47.8438 6.41809 46.1368 8.125 44.0312 8.125C41.9257 8.125 40.2188 6.41809 40.2188 4.3125C40.2188 2.20691 41.9257 0.5 44.0312 0.5C46.1368 0.5 47.8438 2.20691 47.8438 4.3125Z" fill="#86E3FA"/>
</g>
<g filter="url(#filter3_d_1_852)">
<path d="M30.0521 31C30.0521 33.1056 28.3452 34.8125 26.2396 34.8125C24.134 34.8125 22.4271 33.1056 22.4271 31C22.4271 28.8944 24.134 27.1875 26.2396 27.1875C28.3452 27.1875 30.0521 28.8944 30.0521 31Z" fill="#00B0ED"/>
</g>
<g filter="url(#filter4_d_1_852)">
<path d="M38.9479 31C38.9479 33.1056 37.241 34.8125 35.1354 34.8125C33.0298 34.8125 31.3229 33.1056 31.3229 31C31.3229 28.8944 33.0298 27.1875 35.1354 27.1875C37.241 27.1875 38.9479 28.8944 38.9479 31Z" fill="#00B0ED"/>
</g>
<g filter="url(#filter5_d_1_852)">
<path d="M47.8438 31C47.8438 33.1056 46.1368 34.8125 44.0312 34.8125C41.9257 34.8125 40.2188 33.1056 40.2188 31C40.2188 28.8944 41.9257 27.1875 44.0312 27.1875C46.1368 27.1875 47.8438 28.8944 47.8438 31Z" fill="#00B0ED"/>
</g>
<g filter="url(#filter6_d_1_852)">
<path d="M30.0521 39.8958C30.0521 42.0013 28.3452 43.7083 26.2396 43.7083C24.134 43.7083 22.4271 42.0013 22.4271 39.8958C22.4271 37.7902 24.134 36.0833 26.2396 36.0833C28.3452 36.0833 30.0521 37.7902 30.0521 39.8958Z" fill="#04ACE6"/>
</g>
<g filter="url(#filter7_d_1_852)">
<path d="M38.9479 39.8958C38.9479 42.0013 37.241 43.7083 35.1354 43.7083C33.0298 43.7083 31.3229 42.0013 31.3229 39.8958C31.3229 37.7902 33.0298 36.0833 35.1354 36.0833C37.241 36.0833 38.9479 37.7902 38.9479 39.8958Z" fill="#04ACE6"/>
</g>
<g filter="url(#filter8_d_1_852)">
<path d="M47.8438 39.8958C47.8438 42.0013 46.1368 43.7083 44.0312 43.7083C41.9257 43.7083 40.2188 42.0013 40.2188 39.8958C40.2188 37.7902 41.9257 36.0833 44.0312 36.0833C46.1368 36.0833 47.8438 37.7902 47.8438 39.8958Z" fill="#04ACE6"/>
</g>
<g filter="url(#filter9_d_1_852)">
<path d="M30.0521 48.7917C30.0521 50.8973 28.3452 52.6042 26.2396 52.6042C24.134 52.6042 22.4271 50.8973 22.4271 48.7917C22.4271 46.6862 24.134 44.9792 26.2396 44.9792C28.3452 44.9792 30.0521 46.6862 30.0521 48.7917Z" fill="#04ACE6"/>
</g>
<g filter="url(#filter10_d_1_852)">
<path d="M38.9479 48.7917C38.9479 50.8973 37.241 52.6042 35.1354 52.6042C33.0298 52.6042 31.3229 50.8973 31.3229 48.7917C31.3229 46.6862 33.0298 44.9792 35.1354 44.9792C37.241 44.9792 38.9479 46.6862 38.9479 48.7917Z" fill="#04ACE6"/>
</g>
<g filter="url(#filter11_d_1_852)">
<path d="M47.8438 48.7917C47.8438 50.8973 46.1368 52.6042 44.0312 52.6042C41.9257 52.6042 40.2188 50.8973 40.2188 48.7917C40.2188 46.6862 41.9257 44.9792 44.0312 44.9792C46.1368 44.9792 47.8438 46.6862 47.8438 48.7917Z" fill="#04ACE6"/>
</g>
<g filter="url(#filter12_d_1_852)">
<path d="M30.0521 57.6875C30.0521 59.7931 28.3452 61.5 26.2396 61.5C24.134 61.5 22.4271 59.7931 22.4271 57.6875C22.4271 55.5819 24.134 53.875 26.2396 53.875C28.3452 53.875 30.0521 55.5819 30.0521 57.6875Z" fill="#04ACE6"/>
</g>
<g filter="url(#filter13_d_1_852)">
<path d="M38.9479 57.6875C38.9479 59.7931 37.241 61.5 35.1354 61.5C33.0298 61.5 31.3229 59.7931 31.3229 57.6875C31.3229 55.5819 33.0298 53.875 35.1354 53.875C37.241 53.875 38.9479 55.5819 38.9479 57.6875Z" fill="#04ACE6"/>
</g>
<g filter="url(#filter14_d_1_852)">
<path d="M47.8438 57.6875C47.8438 59.7931 46.1368 61.5 44.0312 61.5C41.9257 61.5 40.2188 59.7931 40.2188 57.6875C40.2188 55.5819 41.9257 53.875 44.0312 53.875C46.1368 53.875 47.8438 55.5819 47.8438 57.6875Z" fill="#04ACE6"/>
</g>
<g filter="url(#filter15_d_1_852)">
<path d="M30.0521 22.1042C30.0521 24.2098 28.3452 25.9167 26.2396 25.9167C24.134 25.9167 22.4271 24.2098 22.4271 22.1042C22.4271 19.9987 24.134 18.2917 26.2396 18.2917C28.3452 18.2917 30.0521 19.9987 30.0521 22.1042Z" fill="#26CAFF"/>
</g>
<g filter="url(#filter16_d_1_852)">
<path d="M38.9479 22.1042C38.9479 24.2098 37.241 25.9167 35.1354 25.9167C33.0298 25.9167 31.3229 24.2098 31.3229 22.1042C31.3229 19.9987 33.0298 18.2917 35.1354 18.2917C37.241 18.2917 38.9479 19.9987 38.9479 22.1042Z" fill="#26CAFF"/>
</g>
<g filter="url(#filter17_d_1_852)">
<path d="M47.8438 22.1042C47.8438 24.2098 46.1368 25.9167 44.0312 25.9167C41.9257 25.9167 40.2188 24.2098 40.2188 22.1042C40.2188 19.9987 41.9257 18.2917 44.0312 18.2917C46.1368 18.2917 47.8438 19.9987 47.8438 22.1042Z" fill="#26CAFF"/>
</g>
<g filter="url(#filter18_d_1_852)">
<path d="M30.0521 13.2083C30.0521 15.3138 28.3452 17.0208 26.2396 17.0208C24.134 17.0208 22.4271 15.3138 22.4271 13.2083C22.4271 11.1027 24.134 9.39575 26.2396 9.39575C28.3452 9.39575 30.0521 11.1027 30.0521 13.2083Z" fill="#5AD4FF"/>
</g>
<g filter="url(#filter19_d_1_852)">
<path d="M38.9479 13.2083C38.9479 15.3138 37.241 17.0208 35.1354 17.0208C33.0298 17.0208 31.3229 15.3138 31.3229 13.2083C31.3229 11.1027 33.0298 9.39575 35.1354 9.39575C37.241 9.39575 38.9479 11.1027 38.9479 13.2083Z" fill="#5AD4FF"/>
</g>
<g filter="url(#filter20_d_1_852)">
<path d="M47.8438 13.2083C47.8438 15.3138 46.1368 17.0208 44.0312 17.0208C41.9257 17.0208 40.2188 15.3138 40.2188 13.2083C40.2188 11.1027 41.9257 9.39575 44.0312 9.39575C46.1368 9.39575 47.8438 11.1027 47.8438 13.2083Z" fill="#5AD4FF"/>
</g>
<g filter="url(#filter21_d_1_852)">
<path d="M16.7083 9.39575C18.8139 9.39575 20.5208 11.1027 20.5208 13.2083C20.5208 15.3138 18.8139 17.0208 16.7083 17.0208C14.6028 17.0208 12.8958 15.3138 12.8958 13.2083C12.8958 11.1027 14.6028 9.39575 16.7083 9.39575Z" fill="#5AD4FF"/>
</g>
<g filter="url(#filter22_d_1_852)">
<path d="M16.7083 44.9792C18.8139 44.9792 20.5208 46.6862 20.5208 48.7917C20.5208 50.8973 18.8139 52.6042 16.7083 52.6042C14.6028 52.6042 12.8958 50.8973 12.8958 48.7917C12.8958 46.6862 14.6028 44.9792 16.7083 44.9792Z" fill="#04ACE6"/>
</g>
<g filter="url(#filter23_d_1_852)">
<path d="M52.9271 44.9792C55.0327 44.9792 56.7396 46.6862 56.7396 48.7917C56.7396 50.8973 55.0327 52.6042 52.9271 52.6042C50.8215 52.6042 49.1146 50.8973 49.1146 48.7917C49.1146 46.6862 50.8215 44.9792 52.9271 44.9792Z" fill="#04ACE6"/>
</g>
<g filter="url(#filter24_d_1_852)">
<path d="M7.8125 36.0833C9.91809 36.0833 11.625 37.7902 11.625 39.8958C11.625 42.0013 9.91809 43.7083 7.8125 43.7083C5.70691 43.7083 4 42.0013 4 39.8958C4 37.7902 5.70691 36.0833 7.8125 36.0833Z" fill="#04ACE6"/>
</g>
<g filter="url(#filter25_d_1_852)">
<path d="M16.7083 36.0833C18.8139 36.0833 20.5208 37.7902 20.5208 39.8958C20.5208 42.0013 18.8139 43.7083 16.7083 43.7083C14.6028 43.7083 12.8958 42.0013 12.8958 39.8958C12.8958 37.7902 14.6028 36.0833 16.7083 36.0833Z" fill="#04ACE6"/>
</g>
<g filter="url(#filter26_d_1_852)">
<path d="M7.8125 27.1875C9.91809 27.1875 11.625 28.8944 11.625 31C11.625 33.1056 9.91809 34.8125 7.8125 34.8125C5.70691 34.8125 4 33.1056 4 31C4 28.8944 5.70691 27.1875 7.8125 27.1875Z" fill="#00B0ED"/>
</g>
<g filter="url(#filter27_d_1_852)">
<path d="M16.7083 27.1875C18.8139 27.1875 20.5208 28.8944 20.5208 31C20.5208 33.1056 18.8139 34.8125 16.7083 34.8125C14.6028 34.8125 12.8958 33.1056 12.8958 31C12.8958 28.8944 14.6028 27.1875 16.7083 27.1875Z" fill="#00B0ED"/>
</g>
<g filter="url(#filter28_d_1_852)">
<path d="M7.8125 18.2917C9.91809 18.2917 11.625 19.9987 11.625 22.1042C11.625 24.2098 9.91809 25.9167 7.8125 25.9167C5.70691 25.9167 4 24.2098 4 22.1042C4 19.9987 5.70691 18.2917 7.8125 18.2917Z" fill="#26CAFF"/>
</g>
<g filter="url(#filter29_d_1_852)">
<path d="M16.7083 18.2917C18.8139 18.2917 20.5208 19.9987 20.5208 22.1042C20.5208 24.2098 18.8139 25.9167 16.7083 25.9167C14.6028 25.9167 12.8958 24.2098 12.8958 22.1042C12.8958 19.9987 14.6028 18.2917 16.7083 18.2917Z" fill="#26CAFF"/>
</g>
<g filter="url(#filter30_d_1_852)">
<path d="M52.9271 36.0833C55.0327 36.0833 56.7396 37.7902 56.7396 39.8958C56.7396 42.0013 55.0327 43.7083 52.9271 43.7083C50.8215 43.7083 49.1146 42.0013 49.1146 39.8958C49.1146 37.7902 50.8215 36.0833 52.9271 36.0833Z" fill="#04ACE6"/>
</g>
<g filter="url(#filter31_d_1_852)">
<path d="M61.8229 36.0833C63.9285 36.0833 65.6354 37.7902 65.6354 39.8958C65.6354 42.0013 63.9285 43.7083 61.8229 43.7083C59.7173 43.7083 58.0104 42.0013 58.0104 39.8958C58.0104 37.7902 59.7173 36.0833 61.8229 36.0833Z" fill="#04ACE6"/>
</g>
<g filter="url(#filter32_d_1_852)">
<path d="M52.9271 27.1875C55.0327 27.1875 56.7396 28.8944 56.7396 31C56.7396 33.1056 55.0327 34.8125 52.9271 34.8125C50.8215 34.8125 49.1146 33.1056 49.1146 31C49.1146 28.8944 50.8215 27.1875 52.9271 27.1875Z" fill="#00B0ED"/>
</g>
<g filter="url(#filter33_d_1_852)">
<path d="M61.8229 27.1875C63.9285 27.1875 65.6354 28.8944 65.6354 31C65.6354 33.1056 63.9285 34.8125 61.8229 34.8125C59.7173 34.8125 58.0104 33.1056 58.0104 31C58.0104 28.8944 59.7173 27.1875 61.8229 27.1875Z" fill="#00B0ED"/>
</g>
<g filter="url(#filter34_d_1_852)">
<path d="M52.9271 18.2917C55.0327 18.2917 56.7396 19.9987 56.7396 22.1042C56.7396 24.2098 55.0327 25.9167 52.9271 25.9167C50.8215 25.9167 49.1146 24.2098 49.1146 22.1042C49.1146 19.9987 50.8215 18.2917 52.9271 18.2917Z" fill="#26CAFF"/>
</g>
<g filter="url(#filter35_d_1_852)">
<path d="M61.8229 18.2917C63.9285 18.2917 65.6354 19.9987 65.6354 22.1042C65.6354 24.2098 63.9285 25.9167 61.8229 25.9167C59.7173 25.9167 58.0104 24.2098 58.0104 22.1042C58.0104 19.9987 59.7173 18.2917 61.8229 18.2917Z" fill="#26CAFF"/>
</g>
<g filter="url(#filter36_d_1_852)">
<path d="M52.9271 9.39575C55.0327 9.39575 56.7396 11.1027 56.7396 13.2083C56.7396 15.3138 55.0327 17.0208 52.9271 17.0208C50.8215 17.0208 49.1146 15.3138 49.1146 13.2083C49.1146 11.1027 50.8215 9.39575 52.9271 9.39575Z" fill="#5AD4FF"/>
</g>
<defs>
<filter id="filter0_d_1_852" x="18.4271" y="0.5" width="15.625" height="15.625" filterUnits="userSpaceOnUse" color-interpolation-filters="sRGB">
<feFlood flood-opacity="0" result="BackgroundImageFix"/>
<feColorMatrix in="SourceAlpha" type="matrix" values="0 0 0 0 0 0 0 0 0 0 0 0 0 0 0 0 0 0 127 0" result="hardAlpha"/>
<feOffset dy="4"/>
<feGaussianBlur stdDeviation="2"/>
<feComposite in2="hardAlpha" operator="out"/>
<feColorMatrix type="matrix" values="0 0 0 0 0 0 0 0 0 0 0 0 0 0 0 0 0 0 0.25 0"/>
<feBlend mode="normal" in2="BackgroundImageFix" result="effect1_dropShadow_1_852"/>
<feBlend mode="normal" in="SourceGraphic" in2="effect1_dropShadow_1_852" result="shape"/>
</filter>
<filter id="filter1_d_1_852" x="27.3229" y="0.5" width="15.625" height="15.625" filterUnits="userSpaceOnUse" color-interpolation-filters="sRGB">
<feFlood flood-opacity="0" result="BackgroundImageFix"/>
<feColorMatrix in="SourceAlpha" type="matrix" values="0 0 0 0 0 0 0 0 0 0 0 0 0 0 0 0 0 0 127 0" result="hardAlpha"/>
<feOffset dy="4"/>
<feGaussianBlur stdDeviation="2"/>
<feComposite in2="hardAlpha" operator="out"/>
<feColorMatrix type="matrix" values="0 0 0 0 0 0 0 0 0 0 0 0 0 0 0 0 0 0 0.25 0"/>
<feBlend mode="normal" in2="BackgroundImageFix" result="effect1_dropShadow_1_852"/>
<feBlend mode="normal" in="SourceGraphic" in2="effect1_dropShadow_1_852" result="shape"/>
</filter>
<filter id="filter2_d_1_852" x="36.2188" y="0.5" width="15.625" height="15.625" filterUnits="userSpaceOnUse" color-interpolation-filters="sRGB">
<feFlood flood-opacity="0" result="BackgroundImageFix"/>
<feColorMatrix in="SourceAlpha" type="matrix" values="0 0 0 0 0 0 0 0 0 0 0 0 0 0 0 0 0 0 127 0" result="hardAlpha"/>
<feOffset dy="4"/>
<feGaussianBlur stdDeviation="2"/>
<feComposite in2="hardAlpha" operator="out"/>
<feColorMatrix type="matrix" values="0 0 0 0 0 0 0 0 0 0 0 0 0 0 0 0 0 0 0.25 0"/>
<feBlend mode="normal" in2="BackgroundImageFix" result="effect1_dropShadow_1_852"/>
<feBlend mode="normal" in="SourceGraphic" in2="effect1_dropShadow_1_852" result="shape"/>
</filter>
<filter id="filter3_d_1_852" x="18.4271" y="27.1875" width="15.625" height="15.625" filterUnits="userSpaceOnUse" color-interpolation-filters="sRGB">
<feFlood flood-opacity="0" result="BackgroundImageFix"/>
<feColorMatrix in="SourceAlpha" type="matrix" values="0 0 0 0 0 0 0 0 0 0 0 0 0 0 0 0 0 0 127 0" result="hardAlpha"/>
<feOffset dy="4"/>
<feGaussianBlur stdDeviation="2"/>
<feComposite in2="hardAlpha" operator="out"/>
<feColorMatrix type="matrix" values="0 0 0 0 0 0 0 0 0 0 0 0 0 0 0 0 0 0 0.25 0"/>
<feBlend mode="normal" in2="BackgroundImageFix" result="effect1_dropShadow_1_852"/>
<feBlend mode="normal" in="SourceGraphic" in2="effect1_dropShadow_1_852" result="shape"/>
</filter>
<filter id="filter4_d_1_852" x="27.3229" y="27.1875" width="15.625" height="15.625" filterUnits="userSpaceOnUse" color-interpolation-filters="sRGB">
<feFlood flood-opacity="0" result="BackgroundImageFix"/>
<feColorMatrix in="SourceAlpha" type="matrix" values="0 0 0 0 0 0 0 0 0 0 0 0 0 0 0 0 0 0 127 0" result="hardAlpha"/>
<feOffset dy="4"/>
<feGaussianBlur stdDeviation="2"/>
<feComposite in2="hardAlpha" operator="out"/>
<feColorMatrix type="matrix" values="0 0 0 0 0 0 0 0 0 0 0 0 0 0 0 0 0 0 0.25 0"/>
<feBlend mode="normal" in2="BackgroundImageFix" result="effect1_dropShadow_1_852"/>
<feBlend mode="normal" in="SourceGraphic" in2="effect1_dropShadow_1_852" result="shape"/>
</filter>
<filter id="filter5_d_1_852" x="36.2188" y="27.1875" width="15.625" height="15.625" filterUnits="userSpaceOnUse" color-interpolation-filters="sRGB">
<feFlood flood-opacity="0" result="BackgroundImageFix"/>
<feColorMatrix in="SourceAlpha" type="matrix" values="0 0 0 0 0 0 0 0 0 0 0 0 0 0 0 0 0 0 127 0" result="hardAlpha"/>
<feOffset dy="4"/>
<feGaussianBlur stdDeviation="2"/>
<feComposite in2="hardAlpha" operator="out"/>
<feColorMatrix type="matrix" values="0 0 0 0 0 0 0 0 0 0 0 0 0 0 0 0 0 0 0.25 0"/>
<feBlend mode="normal" in2="BackgroundImageFix" result="effect1_dropShadow_1_852"/>
<feBlend mode="normal" in="SourceGraphic" in2="effect1_dropShadow_1_852" result="shape"/>
</filter>
<filter id="filter6_d_1_852" x="18.4271" y="36.0833" width="15.625" height="15.625" filterUnits="userSpaceOnUse" color-interpolation-filters="sRGB">
<feFlood flood-opacity="0" result="BackgroundImageFix"/>
<feColorMatrix in="SourceAlpha" type="matrix" values="0 0 0 0 0 0 0 0 0 0 0 0 0 0 0 0 0 0 127 0" result="hardAlpha"/>
<feOffset dy="4"/>
<feGaussianBlur stdDeviation="2"/>
<feComposite in2="hardAlpha" operator="out"/>
<feColorMatrix type="matrix" values="0 0 0 0 0 0 0 0 0 0 0 0 0 0 0 0 0 0 0.25 0"/>
<feBlend mode="normal" in2="BackgroundImageFix" result="effect1_dropShadow_1_852"/>
<feBlend mode="normal" in="SourceGraphic" in2="effect1_dropShadow_1_852" result="shape"/>
</filter>
<filter id="filter7_d_1_852" x="27.3229" y="36.0833" width="15.625" height="15.625" filterUnits="userSpaceOnUse" color-interpolation-filters="sRGB">
<feFlood flood-opacity="0" result="BackgroundImageFix"/>
<feColorMatrix in="SourceAlpha" type="matrix" values="0 0 0 0 0 0 0 0 0 0 0 0 0 0 0 0 0 0 127 0" result="hardAlpha"/>
<feOffset dy="4"/>
<feGaussianBlur stdDeviation="2"/>
<feComposite in2="hardAlpha" operator="out"/>
<feColorMatrix type="matrix" values="0 0 0 0 0 0 0 0 0 0 0 0 0 0 0 0 0 0 0.25 0"/>
<feBlend mode="normal" in2="BackgroundImageFix" result="effect1_dropShadow_1_852"/>
<feBlend mode="normal" in="SourceGraphic" in2="effect1_dropShadow_1_852" result="shape"/>
</filter>
<filter id="filter8_d_1_852" x="36.2188" y="36.0833" width="15.625" height="15.625" filterUnits="userSpaceOnUse" color-interpolation-filters="sRGB">
<feFlood flood-opacity="0" result="BackgroundImageFix"/>
<feColorMatrix in="SourceAlpha" type="matrix" values="0 0 0 0 0 0 0 0 0 0 0 0 0 0 0 0 0 0 127 0" result="hardAlpha"/>
<feOffset dy="4"/>
<feGaussianBlur stdDeviation="2"/>
<feComposite in2="hardAlpha" operator="out"/>
<feColorMatrix type="matrix" values="0 0 0 0 0 0 0 0 0 0 0 0 0 0 0 0 0 0 0.25 0"/>
<feBlend mode="normal" in2="BackgroundImageFix" result="effect1_dropShadow_1_852"/>
<feBlend mode="normal" in="SourceGraphic" in2="effect1_dropShadow_1_852" result="shape"/>
</filter>
<filter id="filter9_d_1_852" x="18.4271" y="44.9792" width="15.625" height="15.625" filterUnits="userSpaceOnUse" color-interpolation-filters="sRGB">
<feFlood flood-opacity="0" result="BackgroundImageFix"/>
<feColorMatrix in="SourceAlpha" type="matrix" values="0 0 0 0 0 0 0 0 0 0 0 0 0 0 0 0 0 0 127 0" result="hardAlpha"/>
<feOffset dy="4"/>
<feGaussianBlur stdDeviation="2"/>
<feComposite in2="hardAlpha" operator="out"/>
<feColorMatrix type="matrix" values="0 0 0 0 0 0 0 0 0 0 0 0 0 0 0 0 0 0 0.25 0"/>
<feBlend mode="normal" in2="BackgroundImageFix" result="effect1_dropShadow_1_852"/>
<feBlend mode="normal" in="SourceGraphic" in2="effect1_dropShadow_1_852" result="shape"/>
</filter>
<filter id="filter10_d_1_852" x="27.3229" y="44.9792" width="15.625" height="15.625" filterUnits="userSpaceOnUse" color-interpolation-filters="sRGB">
<feFlood flood-opacity="0" result="BackgroundImageFix"/>
<feColorMatrix in="SourceAlpha" type="matrix" values="0 0 0 0 0 0 0 0 0 0 0 0 0 0 0 0 0 0 127 0" result="hardAlpha"/>
<feOffset dy="4"/>
<feGaussianBlur stdDeviation="2"/>
<feComposite in2="hardAlpha" operator="out"/>
<feColorMatrix type="matrix" values="0 0 0 0 0 0 0 0 0 0 0 0 0 0 0 0 0 0 0.25 0"/>
<feBlend mode="normal" in2="BackgroundImageFix" result="effect1_dropShadow_1_852"/>
<feBlend mode="normal" in="SourceGraphic" in2="effect1_dropShadow_1_852" result="shape"/>
</filter>
<filter id="filter11_d_1_852" x="36.2188" y="44.9792" width="15.625" height="15.625" filterUnits="userSpaceOnUse" color-interpolation-filters="sRGB">
<feFlood flood-opacity="0" result="BackgroundImageFix"/>
<feColorMatrix in="SourceAlpha" type="matrix" values="0 0 0 0 0 0 0 0 0 0 0 0 0 0 0 0 0 0 127 0" result="hardAlpha"/>
<feOffset dy="4"/>
<feGaussianBlur stdDeviation="2"/>
<feComposite in2="hardAlpha" operator="out"/>
<feColorMatrix type="matrix" values="0 0 0 0 0 0 0 0 0 0 0 0 0 0 0 0 0 0 0.25 0"/>
<feBlend mode="normal" in2="BackgroundImageFix" result="effect1_dropShadow_1_852"/>
<feBlend mode="normal" in="SourceGraphic" in2="effect1_dropShadow_1_852" result="shape"/>
</filter>
<filter id="filter12_d_1_852" x="18.4271" y="53.875" width="15.625" height="15.625" filterUnits="userSpaceOnUse" color-interpolation-filters="sRGB">
<feFlood flood-opacity="0" result="BackgroundImageFix"/>
<feColorMatrix in="SourceAlpha" type="matrix" values="0 0 0 0 0 0 0 0 0 0 0 0 0 0 0 0 0 0 127 0" result="hardAlpha"/>
<feOffset dy="4"/>
<feGaussianBlur stdDeviation="2"/>
<feComposite in2="hardAlpha" operator="out"/>
<feColorMatrix type="matrix" values="0 0 0 0 0 0 0 0 0 0 0 0 0 0 0 0 0 0 0.25 0"/>
<feBlend mode="normal" in2="BackgroundImageFix" result="effect1_dropShadow_1_852"/>
<feBlend mode="normal" in="SourceGraphic" in2="effect1_dropShadow_1_852" result="shape"/>
</filter>
<filter id="filter13_d_1_852" x="27.3229" y="53.875" width="15.625" height="15.625" filterUnits="userSpaceOnUse" color-interpolation-filters="sRGB">
<feFlood flood-opacity="0" result="BackgroundImageFix"/>
<feColorMatrix in="SourceAlpha" type="matrix" values="0 0 0 0 0 0 0 0 0 0 0 0 0 0 0 0 0 0 127 0" result="hardAlpha"/>
<feOffset dy="4"/>
<feGaussianBlur stdDeviation="2"/>
<feComposite in2="hardAlpha" operator="out"/>
<feColorMatrix type="matrix" values="0 0 0 0 0 0 0 0 0 0 0 0 0 0 0 0 0 0 0.25 0"/>
<feBlend mode="normal" in2="BackgroundImageFix" result="effect1_dropShadow_1_852"/>
<feBlend mode="normal" in="SourceGraphic" in2="effect1_dropShadow_1_852" result="shape"/>
</filter>
<filter id="filter14_d_1_852" x="36.2188" y="53.875" width="15.625" height="15.625" filterUnits="userSpaceOnUse" color-interpolation-filters="sRGB">
<feFlood flood-opacity="0" result="BackgroundImageFix"/>
<feColorMatrix in="SourceAlpha" type="matrix" values="0 0 0 0 0 0 0 0 0 0 0 0 0 0 0 0 0 0 127 0" result="hardAlpha"/>
<feOffset dy="4"/>
<feGaussianBlur stdDeviation="2"/>
<feComposite in2="hardAlpha" operator="out"/>
<feColorMatrix type="matrix" values="0 0 0 0 0 0 0 0 0 0 0 0 0 0 0 0 0 0 0.25 0"/>
<feBlend mode="normal" in2="BackgroundImageFix" result="effect1_dropShadow_1_852"/>
<feBlend mode="normal" in="SourceGraphic" in2="effect1_dropShadow_1_852" result="shape"/>
</filter>
<filter id="filter15_d_1_852" x="18.4271" y="18.2917" width="15.625" height="15.625" filterUnits="userSpaceOnUse" color-interpolation-filters="sRGB">
<feFlood flood-opacity="0" result="BackgroundImageFix"/>
<feColorMatrix in="SourceAlpha" type="matrix" values="0 0 0 0 0 0 0 0 0 0 0 0 0 0 0 0 0 0 127 0" result="hardAlpha"/>
<feOffset dy="4"/>
<feGaussianBlur stdDeviation="2"/>
<feComposite in2="hardAlpha" operator="out"/>
<feColorMatrix type="matrix" values="0 0 0 0 0 0 0 0 0 0 0 0 0 0 0 0 0 0 0.25 0"/>
<feBlend mode="normal" in2="BackgroundImageFix" result="effect1_dropShadow_1_852"/>
<feBlend mode="normal" in="SourceGraphic" in2="effect1_dropShadow_1_852" result="shape"/>
</filter>
<filter id="filter16_d_1_852" x="27.3229" y="18.2917" width="15.625" height="15.625" filterUnits="userSpaceOnUse" color-interpolation-filters="sRGB">
<feFlood flood-opacity="0" result="BackgroundImageFix"/>
<feColorMatrix in="SourceAlpha" type="matrix" values="0 0 0 0 0 0 0 0 0 0 0 0 0 0 0 0 0 0 127 0" result="hardAlpha"/>
<feOffset dy="4"/>
<feGaussianBlur stdDeviation="2"/>
<feComposite in2="hardAlpha" operator="out"/>
<feColorMatrix type="matrix" values="0 0 0 0 0 0 0 0 0 0 0 0 0 0 0 0 0 0 0.25 0"/>
<feBlend mode="normal" in2="BackgroundImageFix" result="effect1_dropShadow_1_852"/>
<feBlend mode="normal" in="SourceGraphic" in2="effect1_dropShadow_1_852" result="shape"/>
</filter>
<filter id="filter17_d_1_852" x="36.2188" y="18.2917" width="15.625" height="15.625" filterUnits="userSpaceOnUse" color-interpolation-filters="sRGB">
<feFlood flood-opacity="0" result="BackgroundImageFix"/>
<feColorMatrix in="SourceAlpha" type="matrix" values="0 0 0 0 0 0 0 0 0 0 0 0 0 0 0 0 0 0 127 0" result="hardAlpha"/>
<feOffset dy="4"/>
<feGaussianBlur stdDeviation="2"/>
<feComposite in2="hardAlpha" operator="out"/>
<feColorMatrix type="matrix" values="0 0 0 0 0 0 0 0 0 0 0 0 0 0 0 0 0 0 0.25 0"/>
<feBlend mode="normal" in2="BackgroundImageFix" result="effect1_dropShadow_1_852"/>
<feBlend mode="normal" in="SourceGraphic" in2="effect1_dropShadow_1_852" result="shape"/>
</filter>
<filter id="filter18_d_1_852" x="18.4271" y="9.39575" width="15.625" height="15.625" filterUnits="userSpaceOnUse" color-interpolation-filters="sRGB">
<feFlood flood-opacity="0" result="BackgroundImageFix"/>
<feColorMatrix in="SourceAlpha" type="matrix" values="0 0 0 0 0 0 0 0 0 0 0 0 0 0 0 0 0 0 127 0" result="hardAlpha"/>
<feOffset dy="4"/>
<feGaussianBlur stdDeviation="2"/>
<feComposite in2="hardAlpha" operator="out"/>
<feColorMatrix type="matrix" values="0 0 0 0 0 0 0 0 0 0 0 0 0 0 0 0 0 0 0.25 0"/>
<feBlend mode="normal" in2="BackgroundImageFix" result="effect1_dropShadow_1_852"/>
<feBlend mode="normal" in="SourceGraphic" in2="effect1_dropShadow_1_852" result="shape"/>
</filter>
<filter id="filter19_d_1_852" x="27.3229" y="9.39575" width="15.625" height="15.625" filterUnits="userSpaceOnUse" color-interpolation-filters="sRGB">
<feFlood flood-opacity="0" result="BackgroundImageFix"/>
<feColorMatrix in="SourceAlpha" type="matrix" values="0 0 0 0 0 0 0 0 0 0 0 0 0 0 0 0 0 0 127 0" result="hardAlpha"/>
<feOffset dy="4"/>
<feGaussianBlur stdDeviation="2"/>
<feComposite in2="hardAlpha" operator="out"/>
<feColorMatrix type="matrix" values="0 0 0 0 0 0 0 0 0 0 0 0 0 0 0 0 0 0 0.25 0"/>
<feBlend mode="normal" in2="BackgroundImageFix" result="effect1_dropShadow_1_852"/>
<feBlend mode="normal" in="SourceGraphic" in2="effect1_dropShadow_1_852" result="shape"/>
</filter>
<filter id="filter20_d_1_852" x="36.2188" y="9.39575" width="15.625" height="15.625" filterUnits="userSpaceOnUse" color-interpolation-filters="sRGB">
<feFlood flood-opacity="0" result="BackgroundImageFix"/>
<feColorMatrix in="SourceAlpha" type="matrix" values="0 0 0 0 0 0 0 0 0 0 0 0 0 0 0 0 0 0 127 0" result="hardAlpha"/>
<feOffset dy="4"/>
<feGaussianBlur stdDeviation="2"/>
<feComposite in2="hardAlpha" operator="out"/>
<feColorMatrix type="matrix" values="0 0 0 0 0 0 0 0 0 0 0 0 0 0 0 0 0 0 0.25 0"/>
<feBlend mode="normal" in2="BackgroundImageFix" result="effect1_dropShadow_1_852"/>
<feBlend mode="normal" in="SourceGraphic" in2="effect1_dropShadow_1_852" result="shape"/>
</filter>
<filter id="filter21_d_1_852" x="8.89584" y="9.39575" width="15.625" height="15.625" filterUnits="userSpaceOnUse" color-interpolation-filters="sRGB">
<feFlood flood-opacity="0" result="BackgroundImageFix"/>
<feColorMatrix in="SourceAlpha" type="matrix" values="0 0 0 0 0 0 0 0 0 0 0 0 0 0 0 0 0 0 127 0" result="hardAlpha"/>
<feOffset dy="4"/>
<feGaussianBlur stdDeviation="2"/>
<feComposite in2="hardAlpha" operator="out"/>
<feColorMatrix type="matrix" values="0 0 0 0 0 0 0 0 0 0 0 0 0 0 0 0 0 0 0.25 0"/>
<feBlend mode="normal" in2="BackgroundImageFix" result="effect1_dropShadow_1_852"/>
<feBlend mode="normal" in="SourceGraphic" in2="effect1_dropShadow_1_852" result="shape"/>
</filter>
<filter id="filter22_d_1_852" x="8.89584" y="44.9792" width="15.625" height="15.625" filterUnits="userSpaceOnUse" color-interpolation-filters="sRGB">
<feFlood flood-opacity="0" result="BackgroundImageFix"/>
<feColorMatrix in="SourceAlpha" type="matrix" values="0 0 0 0 0 0 0 0 0 0 0 0 0 0 0 0 0 0 127 0" result="hardAlpha"/>
<feOffset dy="4"/>
<feGaussianBlur stdDeviation="2"/>
<feComposite in2="hardAlpha" operator="out"/>
<feColorMatrix type="matrix" values="0 0 0 0 0 0 0 0 0 0 0 0 0 0 0 0 0 0 0.25 0"/>
<feBlend mode="normal" in2="BackgroundImageFix" result="effect1_dropShadow_1_852"/>
<feBlend mode="normal" in="SourceGraphic" in2="effect1_dropShadow_1_852" result="shape"/>
</filter>
<filter id="filter23_d_1_852" x="45.1146" y="44.9792" width="15.625" height="15.625" filterUnits="userSpaceOnUse" color-interpolation-filters="sRGB">
<feFlood flood-opacity="0" result="BackgroundImageFix"/>
<feColorMatrix in="SourceAlpha" type="matrix" values="0 0 0 0 0 0 0 0 0 0 0 0 0 0 0 0 0 0 127 0" result="hardAlpha"/>
<feOffset dy="4"/>
<feGaussianBlur stdDeviation="2"/>
<feComposite in2="hardAlpha" operator="out"/>
<feColorMatrix type="matrix" values="0 0 0 0 0 0 0 0 0 0 0 0 0 0 0 0 0 0 0.25 0"/>
<feBlend mode="normal" in2="BackgroundImageFix" result="effect1_dropShadow_1_852"/>
<feBlend mode="normal" in="SourceGraphic" in2="effect1_dropShadow_1_852" result="shape"/>
</filter>
<filter id="filter24_d_1_852" x="0" y="36.0833" width="15.625" height="15.625" filterUnits="userSpaceOnUse" color-interpolation-filters="sRGB">
<feFlood flood-opacity="0" result="BackgroundImageFix"/>
<feColorMatrix in="SourceAlpha" type="matrix" values="0 0 0 0 0 0 0 0 0 0 0 0 0 0 0 0 0 0 127 0" result="hardAlpha"/>
<feOffset dy="4"/>
<feGaussianBlur stdDeviation="2"/>
<feComposite in2="hardAlpha" operator="out"/>
<feColorMatrix type="matrix" values="0 0 0 0 0 0 0 0 0 0 0 0 0 0 0 0 0 0 0.25 0"/>
<feBlend mode="normal" in2="BackgroundImageFix" result="effect1_dropShadow_1_852"/>
<feBlend mode="normal" in="SourceGraphic" in2="effect1_dropShadow_1_852" result="shape"/>
</filter>
<filter id="filter25_d_1_852" x="8.89584" y="36.0833" width="15.625" height="15.625" filterUnits="userSpaceOnUse" color-interpolation-filters="sRGB">
<feFlood flood-opacity="0" result="BackgroundImageFix"/>
<feColorMatrix in="SourceAlpha" type="matrix" values="0 0 0 0 0 0 0 0 0 0 0 0 0 0 0 0 0 0 127 0" result="hardAlpha"/>
<feOffset dy="4"/>
<feGaussianBlur stdDeviation="2"/>
<feComposite in2="hardAlpha" operator="out"/>
<feColorMatrix type="matrix" values="0 0 0 0 0 0 0 0 0 0 0 0 0 0 0 0 0 0 0.25 0"/>
<feBlend mode="normal" in2="BackgroundImageFix" result="effect1_dropShadow_1_852"/>
<feBlend mode="normal" in="SourceGraphic" in2="effect1_dropShadow_1_852" result="shape"/>
</filter>
<filter id="filter26_d_1_852" x="0" y="27.1875" width="15.625" height="15.625" filterUnits="userSpaceOnUse" color-interpolation-filters="sRGB">
<feFlood flood-opacity="0" result="BackgroundImageFix"/>
<feColorMatrix in="SourceAlpha" type="matrix" values="0 0 0 0 0 0 0 0 0 0 0 0 0 0 0 0 0 0 127 0" result="hardAlpha"/>
<feOffset dy="4"/>
<feGaussianBlur stdDeviation="2"/>
<feComposite in2="hardAlpha" operator="out"/>
<feColorMatrix type="matrix" values="0 0 0 0 0 0 0 0 0 0 0 0 0 0 0 0 0 0 0.25 0"/>
<feBlend mode="normal" in2="BackgroundImageFix" result="effect1_dropShadow_1_852"/>
<feBlend mode="normal" in="SourceGraphic" in2="effect1_dropShadow_1_852" result="shape"/>
</filter>
<filter id="filter27_d_1_852" x="8.89584" y="27.1875" width="15.625" height="15.625" filterUnits="userSpaceOnUse" color-interpolation-filters="sRGB">
<feFlood flood-opacity="0" result="BackgroundImageFix"/>
<feColorMatrix in="SourceAlpha" type="matrix" values="0 0 0 0 0 0 0 0 0 0 0 0 0 0 0 0 0 0 127 0" result="hardAlpha"/>
<feOffset dy="4"/>
<feGaussianBlur stdDeviation="2"/>
<feComposite in2="hardAlpha" operator="out"/>
<feColorMatrix type="matrix" values="0 0 0 0 0 0 0 0 0 0 0 0 0 0 0 0 0 0 0.25 0"/>
<feBlend mode="normal" in2="BackgroundImageFix" result="effect1_dropShadow_1_852"/>
<feBlend mode="normal" in="SourceGraphic" in2="effect1_dropShadow_1_852" result="shape"/>
</filter>
<filter id="filter28_d_1_852" x="0" y="18.2917" width="15.625" height="15.625" filterUnits="userSpaceOnUse" color-interpolation-filters="sRGB">
<feFlood flood-opacity="0" result="BackgroundImageFix"/>
<feColorMatrix in="SourceAlpha" type="matrix" values="0 0 0 0 0 0 0 0 0 0 0 0 0 0 0 0 0 0 127 0" result="hardAlpha"/>
<feOffset dy="4"/>
<feGaussianBlur stdDeviation="2"/>
<feComposite in2="hardAlpha" operator="out"/>
<feColorMatrix type="matrix" values="0 0 0 0 0 0 0 0 0 0 0 0 0 0 0 0 0 0 0.25 0"/>
<feBlend mode="normal" in2="BackgroundImageFix" result="effect1_dropShadow_1_852"/>
<feBlend mode="normal" in="SourceGraphic" in2="effect1_dropShadow_1_852" result="shape"/>
</filter>
<filter id="filter29_d_1_852" x="8.89584" y="18.2917" width="15.625" height="15.625" filterUnits="userSpaceOnUse" color-interpolation-filters="sRGB">
<feFlood flood-opacity="0" result="BackgroundImageFix"/>
<feColorMatrix in="SourceAlpha" type="matrix" values="0 0 0 0 0 0 0 0 0 0 0 0 0 0 0 0 0 0 127 0" result="hardAlpha"/>
<feOffset dy="4"/>
<feGaussianBlur stdDeviation="2"/>
<feComposite in2="hardAlpha" operator="out"/>
<feColorMatrix type="matrix" values="0 0 0 0 0 0 0 0 0 0 0 0 0 0 0 0 0 0 0.25 0"/>
<feBlend mode="normal" in2="BackgroundImageFix" result="effect1_dropShadow_1_852"/>
<feBlend mode="normal" in="SourceGraphic" in2="effect1_dropShadow_1_852" result="shape"/>
</filter>
<filter id="filter30_d_1_852" x="45.1146" y="36.0833" width="15.625" height="15.625" filterUnits="userSpaceOnUse" color-interpolation-filters="sRGB">
<feFlood flood-opacity="0" result="BackgroundImageFix"/>
<feColorMatrix in="SourceAlpha" type="matrix" values="0 0 0 0 0 0 0 0 0 0 0 0 0 0 0 0 0 0 127 0" result="hardAlpha"/>
<feOffset dy="4"/>
<feGaussianBlur stdDeviation="2"/>
<feComposite in2="hardAlpha" operator="out"/>
<feColorMatrix type="matrix" values="0 0 0 0 0 0 0 0 0 0 0 0 0 0 0 0 0 0 0.25 0"/>
<feBlend mode="normal" in2="BackgroundImageFix" result="effect1_dropShadow_1_852"/>
<feBlend mode="normal" in="SourceGraphic" in2="effect1_dropShadow_1_852" result="shape"/>
</filter>
<filter id="filter31_d_1_852" x="54.0104" y="36.0833" width="15.625" height="15.625" filterUnits="userSpaceOnUse" color-interpolation-filters="sRGB">
<feFlood flood-opacity="0" result="BackgroundImageFix"/>
<feColorMatrix in="SourceAlpha" type="matrix" values="0 0 0 0 0 0 0 0 0 0 0 0 0 0 0 0 0 0 127 0" result="hardAlpha"/>
<feOffset dy="4"/>
<feGaussianBlur stdDeviation="2"/>
<feComposite in2="hardAlpha" operator="out"/>
<feColorMatrix type="matrix" values="0 0 0 0 0 0 0 0 0 0 0 0 0 0 0 0 0 0 0.25 0"/>
<feBlend mode="normal" in2="BackgroundImageFix" result="effect1_dropShadow_1_852"/>
<feBlend mode="normal" in="SourceGraphic" in2="effect1_dropShadow_1_852" result="shape"/>
</filter>
<filter id="filter32_d_1_852" x="45.1146" y="27.1875" width="15.625" height="15.625" filterUnits="userSpaceOnUse" color-interpolation-filters="sRGB">
<feFlood flood-opacity="0" result="BackgroundImageFix"/>
<feColorMatrix in="SourceAlpha" type="matrix" values="0 0 0 0 0 0 0 0 0 0 0 0 0 0 0 0 0 0 127 0" result="hardAlpha"/>
<feOffset dy="4"/>
<feGaussianBlur stdDeviation="2"/>
<feComposite in2="hardAlpha" operator="out"/>
<feColorMatrix type="matrix" values="0 0 0 0 0 0 0 0 0 0 0 0 0 0 0 0 0 0 0.25 0"/>
<feBlend mode="normal" in2="BackgroundImageFix" result="effect1_dropShadow_1_852"/>
<feBlend mode="normal" in="SourceGraphic" in2="effect1_dropShadow_1_852" result="shape"/>
</filter>
<filter id="filter33_d_1_852" x="54.0104" y="27.1875" width="15.625" height="15.625" filterUnits="userSpaceOnUse" color-interpolation-filters="sRGB">
<feFlood flood-opacity="0" result="BackgroundImageFix"/>
<feColorMatrix in="SourceAlpha" type="matrix" values="0 0 0 0 0 0 0 0 0 0 0 0 0 0 0 0 0 0 127 0" result="hardAlpha"/>
<feOffset dy="4"/>
<feGaussianBlur stdDeviation="2"/>
<feComposite in2="hardAlpha" operator="out"/>
<feColorMatrix type="matrix" values="0 0 0 0 0 0 0 0 0 0 0 0 0 0 0 0 0 0 0.25 0"/>
<feBlend mode="normal" in2="BackgroundImageFix" result="effect1_dropShadow_1_852"/>
<feBlend mode="normal" in="SourceGraphic" in2="effect1_dropShadow_1_852" result="shape"/>
</filter>
<filter id="filter34_d_1_852" x="45.1146" y="18.2917" width="15.625" height="15.625" filterUnits="userSpaceOnUse" color-interpolation-filters="sRGB">
<feFlood flood-opacity="0" result="BackgroundImageFix"/>
<feColorMatrix in="SourceAlpha" type="matrix" values="0 0 0 0 0 0 0 0 0 0 0 0 0 0 0 0 0 0 127 0" result="hardAlpha"/>
<feOffset dy="4"/>
<feGaussianBlur stdDeviation="2"/>
<feComposite in2="hardAlpha" operator="out"/>
<feColorMatrix type="matrix" values="0 0 0 0 0 0 0 0 0 0 0 0 0 0 0 0 0 0 0.25 0"/>
<feBlend mode="normal" in2="BackgroundImageFix" result="effect1_dropShadow_1_852"/>
<feBlend mode="normal" in="SourceGraphic" in2="effect1_dropShadow_1_852" result="shape"/>
</filter>
<filter id="filter35_d_1_852" x="54.0104" y="18.2917" width="15.625" height="15.625" filterUnits="userSpaceOnUse" color-interpolation-filters="sRGB">
<feFlood flood-opacity="0" result="BackgroundImageFix"/>
<feColorMatrix in="SourceAlpha" type="matrix" values="0 0 0 0 0 0 0 0 0 0 0 0 0 0 0 0 0 0 127 0" result="hardAlpha"/>
<feOffset dy="4"/>
<feGaussianBlur stdDeviation="2"/>
<feComposite in2="hardAlpha" operator="out"/>
<feColorMatrix type="matrix" values="0 0 0 0 0 0 0 0 0 0 0 0 0 0 0 0 0 0 0.25 0"/>
<feBlend mode="normal" in2="BackgroundImageFix" result="effect1_dropShadow_1_852"/>
<feBlend mode="normal" in="SourceGraphic" in2="effect1_dropShadow_1_852" result="shape"/>
</filter>
<filter id="filter36_d_1_852" x="45.1146" y="9.39575" width="15.625" height="15.625" filterUnits="userSpaceOnUse" color-interpolation-filters="sRGB">
<feFlood flood-opacity="0" result="BackgroundImageFix"/>
<feColorMatrix in="SourceAlpha" type="matrix" values="0 0 0 0 0 0 0 0 0 0 0 0 0 0 0 0 0 0 127 0" result="hardAlpha"/>
<feOffset dy="4"/>
<feGaussianBlur stdDeviation="2"/>
<feComposite in2="hardAlpha" operator="out"/>
<feColorMatrix type="matrix" values="0 0 0 0 0 0 0 0 0 0 0 0 0 0 0 0 0 0 0.25 0"/>
<feBlend mode="normal" in2="BackgroundImageFix" result="effect1_dropShadow_1_852"/>
<feBlend mode="normal" in="SourceGraphic" in2="effect1_dropShadow_1_852" result="shape"/>
</filter>
</defs>
</svg>
